<?xml version="1.0" standalone="no"?>
<!DOCTYPE svg PUBLIC "-//W3C//DTD SVG 20010904//EN"
 "http://www.w3.org/TR/2001/REC-SVG-20010904/DTD/svg10.dtd">
<svg version="1.0" xmlns="http://www.w3.org/2000/svg"
 width="179.000000pt" height="230.000000pt" viewBox="0 0 179.000000 230.000000"
 preserveAspectRatio="xMidYMid meet">
<metadata>
Created by potrace 1.10, written by Peter Selinger 2001-2011
</metadata>
<g transform="translate(0.000000,230.000000) scale(0.100000,-0.100000)"
fill="#000000" stroke="none">
<path d="M905 2008 c-16 -5 -46 -14 -65 -18 -19 -5 -73 -23 -120 -39 -78 -28
-91 -37 -163 -111 -58 -60 -87 -100 -117 -162 -46 -95 -51 -150 -20 -221 17
-38 20 -65 19 -179 -1 -126 5 -269 17 -368 6 -53 41 -167 60 -195 22 -31 17
-61 -13 -84 -23 -18 -25 -21 -8 -19 19 3 20 -2 16 -72 -2 -41 -6 -79 -9 -85
-10 -15 -14 -36 -17 -86 -2 -35 5 -61 30 -112 17 -37 39 -75 47 -85 16 -19 68
-133 68 -150 0 -24 22 -21 57 7 38 29 153 81 181 81 8 0 29 9 46 19 17 11 52
25 78 31 38 10 52 20 74 54 15 22 55 77 89 121 75 98 78 103 99 190 16 65 16
73 1 100 l-16 30 6 -35 c8 -45 -44 -168 -108 -255 -24 -33 -62 -85 -84 -116
-35 -48 -50 -59 -105 -80 -34 -13 -74 -27 -88 -30 -57 -15 -127 -45 -158 -67
-36 -26 -62 -23 -62 6 0 11 -7 25 -15 32 -9 7 -14 19 -11 26 3 7 1 16 -5 19
-5 4 -9 12 -8 18 3 26 -2 36 -15 31 -8 -3 -16 3 -19 15 -3 12 -1 19 4 15 5 -3
9 0 9 5 0 6 -7 11 -16 11 -9 0 -14 6 -11 13 2 6 -2 17 -9 22 -8 6 -14 24 -15
40 -2 54 12 229 23 285 15 76 14 106 -6 126 -9 9 -15 23 -12 30 3 8 1 14 -4
14 -7 0 -23 47 -25 75 0 6 -4 15 -8 21 -4 7 -5 26 -3 43 2 17 0 34 -5 37 -4 2
-8 39 -9 82 -3 364 -5 409 -20 427 -26 31 -23 126 7 184 13 28 29 49 34 46 5
-4 6 1 3 9 -3 9 -1 16 5 16 6 0 10 3 9 8 -5 13 75 108 112 134 19 14 46 29 60
33 14 4 50 19 80 32 30 14 63 27 72 28 9 2 27 9 39 16 19 10 25 9 36 -7 12
-16 13 -16 13 -1 0 9 5 17 11 17 5 0 7 5 4 10 -3 6 1 10 9 10 9 0 16 -5 16
-11 0 -7 7 -8 18 -4 33 15 112 12 125 -4 10 -12 9 -14 -5 -8 -10 3 -18 3 -18
-2 0 -5 10 -11 23 -15 32 -9 39 -7 31 6 -4 6 4 3 18 -8 l26 -19 -46 -6 -47 -6
43 -3 c23 -2 48 -3 55 -4 6 -1 11 5 9 12 -2 10 2 10 18 2 11 -6 18 -15 15 -21
-4 -5 -2 -9 3 -9 5 0 12 -8 14 -17 3 -10 23 -27 44 -38 44 -22 67 -49 72 -82
3 -28 -14 -30 -28 -3 -6 11 -16 20 -23 20 -7 0 3 -14 20 -30 18 -16 38 -27 45
-25 17 6 52 -21 44 -34 -4 -5 -2 -12 4 -16 29 -18 45 -168 26 -243 -18 -66
-22 -71 -41 -46 -14 18 -14 18 -15 -6 -1 -21 -2 -22 -10 -8 -6 10 -7 26 -1 40
7 19 6 24 -8 25 -15 1 -16 -16 -14 -175 1 -97 2 -180 3 -184 0 -5 10 -8 22 -8
12 0 18 3 15 7 -4 3 0 15 10 25 9 10 13 21 9 26 -4 4 -16 -4 -27 -17 -11 -13
-22 -21 -25 -18 -7 7 14 47 25 47 5 0 7 12 5 28 -5 43 8 103 25 121 18 18 55
101 77 171 19 60 7 118 -52 237 -62 125 -176 253 -225 253 -10 0 -21 4 -24 10
-3 5 -28 21 -56 35 -43 21 -64 25 -132 24 -45 0 -95 -5 -112 -11z"/>
<path d="M1170 1856 c0 -9 14 -22 30 -31 17 -9 30 -12 30 -7 0 4 -13 18 -30
30 -24 18 -30 19 -30 8z"/>
<path d="M1084 1752 c4 -7 1 -12 -9 -12 -9 0 -13 -5 -10 -10 5 -8 11 -7 21 0
10 9 19 6 39 -16 14 -15 25 -23 25 -17 0 10 -35 44 -59 58 -9 5 -12 4 -7 -3z"/>
<path d="M1297 1690 c25 -33 48 -58 50 -56 3 2 -12 25 -31 51 -20 25 -36 51
-36 56 0 5 -7 9 -15 9 -10 0 1 -21 32 -60z"/>
<path d="M970 1725 c0 -2 17 -12 38 -23 74 -38 142 -117 142 -164 0 -15 5 -28
10 -28 37 0 -18 111 -77 155 -21 16 -40 32 -43 35 -9 11 -70 33 -70 25z"/>
<path d="M1160 1694 c0 -3 14 -17 30 -31 38 -32 60 -73 60 -113 0 -41 17 -30
22 14 2 19 0 32 -4 30 -4 -3 -12 5 -17 18 -16 43 -91 110 -91 82z"/>
<path d="M1185 1623 c14 -21 25 -43 25 -50 0 -7 4 -13 10 -13 5 0 6 8 3 18
-13 33 -45 82 -54 82 -6 0 2 -17 16 -37z"/>
<path d="M1325 1550 c3 -5 21 -10 38 -10 24 0 28 3 17 10 -20 13 -63 13 -55 0z"/>
<path d="M1300 1533 c0 -13 35 -61 52 -72 37 -23 31 -2 -11 38 -22 21 -41 37
-41 34z"/>
<path d="M550 1493 c0 -10 114 -48 138 -46 6 0 12 -3 12 -8 0 -5 7 -9 15 -9
16 0 20 12 8 24 -5 4 -8 12 -8 18 0 6 -13 12 -30 13 -16 1 -54 5 -82 10 -33 5
-53 4 -53 -2z"/>
<path d="M1006 1461 c-4 -5 -13 -8 -21 -4 -8 3 -15 0 -15 -6 0 -13 10 -14 152
-15 91 -1 105 1 93 13 -17 17 -199 28 -209 12z"/>
<path d="M751 1407 c-1 -14 -5 -16 -20 -7 -25 13 -52 13 -30 0 9 -5 25 -11 35
-13 34 -5 45 -17 34 -37 -13 -24 -13 -33 0 -25 13 8 -7 -45 -24 -65 -20 -23
-38 -60 -29 -60 4 0 24 15 43 33 28 25 35 40 36 72 1 22 5 47 8 56 8 18 -20
53 -34 44 -5 -3 -11 1 -13 7 -3 8 -6 6 -6 -5z"/>
<path d="M940 1385 c0 -9 9 -15 25 -15 26 0 34 -15 13 -24 -9 -3 -8 -9 6 -20
10 -8 22 -13 27 -11 4 3 5 -5 2 -16 -4 -16 -2 -20 8 -17 8 3 29 -1 48 -8 48
-20 63 -17 21 4 -19 9 -42 24 -51 33 -9 9 -23 19 -30 21 -18 7 -10 15 21 23
20 5 27 1 35 -17 13 -29 38 -34 59 -13 13 14 20 15 31 5 8 -7 12 -16 9 -21 -3
-5 13 -9 36 -9 22 0 49 -5 60 -12 25 -16 39 -2 15 16 -10 7 -15 18 -11 24 4 7
1 12 -7 12 -8 0 -36 9 -62 21 -57 25 -71 18 -18 -10 21 -11 33 -20 28 -21 -6
0 -29 9 -50 20 -23 12 -41 16 -43 10 -2 -5 -8 -10 -13 -10 -6 0 -8 4 -4 9 3 5
-5 12 -17 14 -19 4 -18 5 7 7 l30 2 -35 9 c-19 4 -49 4 -67 -1 -20 -5 -35 -5
-39 1 -9 15 -34 10 -34 -6z"/>
<path d="M560 1367 c-26 -16 -30 -23 -18 -25 10 -2 28 6 40 18 l23 21 14 -20
c18 -28 45 -26 65 4 13 19 13 25 3 25 -7 0 -18 -5 -25 -12 -9 -9 -12 -9 -12 0
0 20 -52 13 -90 -11z"/>
<path d="M1431 1256 c-8 -9 -8 -22 0 -45 6 -17 9 -50 6 -74 -15 -131 -23 -150
-61 -145 -13 2 -21 -3 -21 -12 0 -8 -6 -19 -13 -23 -14 -9 -52 -84 -52 -104 0
-7 -4 -13 -10 -13 -5 0 -7 -7 -4 -15 4 -8 1 -15 -6 -15 -7 0 -10 -7 -7 -15 4
-8 2 -17 -3 -20 -6 -4 -10 -15 -10 -26 0 -11 -4 -18 -9 -15 -5 3 -14 -7 -19
-24 -11 -29 -2 -47 17 -36 5 4 11 0 14 -6 3 -7 5 -4 4 7 0 20 59 181 90 243 9
19 31 41 47 49 17 9 33 17 35 19 7 6 30 185 31 231 0 45 -11 61 -29 39z"/>
<path d="M894 1208 c-5 -7 0 -9 14 -6 11 3 31 -1 44 -10 l23 -16 -19 22 c-21
24 -51 29 -62 10z"/>
<path d="M664 1148 c-15 -24 34 -73 53 -54 4 3 -1 6 -9 6 -16 0 -33 28 -24 38
9 8 69 -18 93 -39 20 -20 23 -20 38 -6 16 17 6 30 -18 22 -8 -4 -21 4 -30 18
-13 20 -24 25 -57 24 -23 -1 -44 -5 -46 -9z"/>
<path d="M855 1136 c-17 -12 -15 -14 34 -21 39 -5 51 -11 47 -21 -3 -9 1 -14
14 -14 23 0 23 38 0 50 -34 17 -76 20 -95 6z"/>
<path d="M728 1071 c-14 -11 -28 -17 -32 -14 -3 3 -6 1 -6 -5 0 -7 -3 -11 -7
-11 -27 4 -53 -4 -75 -24 -14 -13 -30 -21 -36 -19 -7 2 -12 -1 -12 -6 0 -6 -3
-17 -6 -26 -4 -10 -1 -16 7 -16 7 0 9 3 6 6 -12 12 67 60 93 56 3 0 10 3 15 7
6 4 29 13 53 21 44 14 47 17 34 38 -7 10 -14 8 -34 -7z"/>
<path d="M845 1067 c-50 -31 -60 -64 -10 -37 21 11 28 10 52 -6 15 -10 48 -29
73 -42 25 -13 51 -31 58 -40 6 -9 12 -12 12 -8 0 5 7 3 15 -4 8 -7 15 -21 15
-31 0 -11 7 -19 15 -19 16 0 18 12 9 48 -4 12 -13 22 -20 22 -8 0 -17 6 -20
13 -2 7 -33 26 -69 43 -37 17 -68 38 -74 52 -12 24 -26 27 -56 9z"/>
<path d="M807 973 c-9 -10 -17 -12 -17 -7 0 8 -21 7 -68 -1 -76 -13 -92 -20
-92 -41 0 -20 17 -17 29 5 9 16 22 19 76 18 36 0 65 -3 65 -6 0 -3 20 -6 44
-7 56 -1 136 -31 136 -50 0 -15 14 -17 43 -5 15 6 10 12 -30 38 -51 32 -102
48 -142 44 -18 -2 -22 1 -18 13 8 21 -4 20 -26 -1z"/>
<path d="M697 828 c2 -5 11 -8 19 -8 8 0 14 -6 14 -13 0 -8 6 -14 13 -14 6 -1
38 -5 70 -10 36 -7 57 -7 57 0 0 5 9 7 20 4 13 -3 20 0 20 9 0 15 -75 38 -92
28 -6 -4 -9 -3 -5 2 3 5 -23 9 -58 9 -35 0 -61 -3 -58 -7z"/>
<path d="M1113 630 c-18 -10 -40 -23 -48 -30 -9 -7 -18 -10 -21 -7 -4 3 -13 0
-21 -8 -18 -18 -53 -20 -53 -2 0 9 -2 9 -8 -1 -7 -11 -43 -17 -127 -22 -29 -1
-29 -2 -7 -11 24 -9 213 -9 207 1 -2 3 8 6 22 7 14 0 30 6 37 13 8 10 5 11
-14 5 -20 -6 -22 -5 -13 5 6 7 24 13 40 13 27 0 52 20 53 45 0 15 -7 14 -47
-8z"/>
<path d="M365 555 c-33 -14 -66 -25 -73 -25 -7 0 -10 -5 -7 -10 3 -6 -1 -13
-9 -16 -9 -3 -13 -10 -10 -15 3 -5 -2 -9 -10 -9 -9 0 -16 -4 -16 -10 0 -17 13
-11 45 20 17 17 42 32 54 35 13 2 29 9 36 15 8 7 14 7 17 1 1 -5 16 1 31 15
36 30 18 30 -58 -1z"/>
<path d="M103 490 c-13 -5 -23 -17 -23 -26 0 -15 2 -16 18 -2 9 8 26 20 37 26
25 14 1 15 -32 2z"/>
<path d="M1360 491 c0 -6 13 -23 29 -37 17 -15 32 -36 34 -48 4 -21 4 -21 6 1
0 12 -10 33 -24 47 -14 14 -25 29 -24 33 0 4 -4 9 -10 11 -6 2 -11 -1 -11 -7z"/>
<path d="M285 374 c-25 -11 -27 -13 -8 -14 20 0 21 -4 16 -57 -4 -58 -4 -58
42 -107 26 -26 49 -56 53 -66 10 -26 111 -130 126 -130 7 0 -16 29 -51 63 -45
46 -63 71 -63 90 0 17 -7 28 -20 32 -26 8 -80 74 -80 98 0 10 7 34 15 54 19
44 10 55 -30 37z"/>
<path d="M1415 331 c-3 -16 1 -59 9 -95 20 -85 20 -84 -6 -88 -14 -2 -25 -15
-35 -43 -7 -22 -28 -54 -45 -72 -18 -18 -27 -33 -21 -33 23 0 68 49 82 86 18
52 50 74 52 37 0 -15 2 -15 8 2 5 11 6 29 4 40 -3 11 -7 59 -10 108 -4 62 -9
87 -18 87 -8 0 -16 -13 -20 -29z"/>
<path d="M1648 300 c-1 -28 -2 -50 -1 -50 1 0 9 12 17 28 8 15 16 21 17 15 1
-7 3 -17 4 -23 1 -5 3 -15 4 -22 1 -8 4 -9 11 -2 11 11 -24 104 -40 104 -4 0
-10 -23 -12 -50z"/>
<path d="M1160 223 c0 -5 18 -16 39 -26 42 -19 58 -44 41 -61 -17 -17 -11 -30
8 -14 9 9 27 19 40 23 22 6 21 8 -20 34 -40 25 -93 51 -103 51 -3 0 -5 -3 -5
-7z"/>
<path d="M1609 163 c-6 -78 -2 -163 8 -163 7 0 13 10 13 23 0 12 0 29 1 37 2
38 -5 101 -13 106 -4 3 -8 2 -9 -3z"/>
<path d="M963 109 c-10 -13 -31 -36 -48 -52 -29 -29 -29 -30 -5 -22 25 8 35
18 67 63 21 30 9 40 -14 11z"/>
<path d="M90 88 c-20 -25 -59 -88 -54 -88 8 0 43 43 44 54 0 5 7 18 17 28 9
10 13 18 10 18 -3 0 -11 -6 -17 -12z"/>
<path d="M1187 49 c-21 -27 -34 -49 -28 -49 10 0 76 89 69 95 -1 1 -20 -19
-41 -46z"/>
</g>
</svg>
